<svg xmlns="http://www.w3.org/2000/svg" viewBox="0 0 64 64" shape-rendering="crispEdges">
  <ellipse cx="32" cy="60" rx="19" ry="3" fill="#140f13" opacity=".65"/>
  <path d="m24 36-5 12-9 5 2 3 12-2 7-12zm16 0 5 12 8 5-2 3-12-2-7-12z" fill="#b9ae91" stroke="#37302e" stroke-width="3"/>
  <path d="m11 52 9 1 1 3-13 2zm35 1 7-1 6 4-13-1z" fill="#ddd0aa" stroke="#37302e" stroke-width="2"/>
  <path d="m23 26-9 3-5 10 3 2 8-7 8 2m13-10 8 3 4 9-3 2-8-7-7 2" fill="none" stroke="#c7b995" stroke-width="4"/>
  <path d="m23 28 18 1 5 13-7 7-17-1-5-11z" fill="#514237" stroke="#272326" stroke-width="3"/>
  <path d="m25 33 5 2-3 4 6 2-6 5-6-4 2-5z" fill="#84633f"/>
  <path d="m22 10 6-5 10 1 6 7-2 11-8 6-10-3-5-8z" fill="#83b8b5" stroke="#303c43" stroke-width="3"/>
  <path d="m25 14 5-2 2 5-5 3zm10 1 5-2 2 5-5 3z" fill="#151b25"/>
  <path d="m27 15 2-1 1 2-2 1zm11 1 2-1 1 2-2 1z" fill="#8cf7ff"/>
  <path d="m28 24 4-2 3 2 4-1-2 5-7 1z" fill="#24313a"/>
  <path d="m8 41 44-27" fill="none" stroke="#614325" stroke-width="4"/>
  <path d="m8 40 44-27" fill="none" stroke="#bd9158" stroke-width="2"/>
  <path d="m9 35-6 4 5 8 7-5z" fill="#899493" stroke="#36383b" stroke-width="2"/>
  <path d="m50 15 7-5-2 9-5 3z" fill="#9ca39b" stroke="#393a39" stroke-width="2"/>
</svg>
